# xmcd
#
# Track frame offsets: 
#        182
#        15475
#        31760
#        49707
#        85832
#        107535
#        129017
#        170815
#        185890
#        208662
#        228645
#        261535
#
# Disc length: 3732 seconds
#
# Revision: 3
# Processed by: cddbd v1.5.2PL0 Copyright (c) Steve Scherf et al.
# Submitted via: ExactAudioCopy v0.99pb3
#
DISCID=9f0e920c
DTITLE=Gerry Groom, Mick Taylor and Friends - Once In A Blue Moon
DYEAR=1991
DGENRE=Blues
TTITLE0=Can't Be Satisfied
TTITLE1=When You Got A Friend
TTITLE2=Coastin' Home
TTITLE3=Mick's Jam
TTITLE4=Music Teacher
TTITLE5=Hip Shake
TTITLE6=Long Distance Call
TTITLE7=Suzie Q
TTITLE8=Louisiana Blues
TTITLE9=Spots For Days
TTITLE10=Red Rooster
TTITLE11=Can't Be Satisfied
EXTD=
EXTT0=
EXTT1=
EXTT2=
EXTT3=
EXTT4=
EXTT5=
EXTT6=
EXTT7=
EXTT8=
EXTT9=
EXTT10=
EXTT11=
PLAYORDER=
